<?xml version="1.0" encoding="UTF-8"?>
<!DOCTYPE svg PUBLIC "-//W3C//DTD SVG 1.1//EN" "http://www.w3.org/Graphics/SVG/1.1/DTD/svg11.dtd">
<!-- Creator: CorelDRAW X8 -->
<svg xmlns="http://www.w3.org/2000/svg" xml:space="preserve" width="683px" height="332px" version="1.1" style="shape-rendering:geometricPrecision; text-rendering:geometricPrecision; image-rendering:optimizeQuality; fill-rule:evenodd; clip-rule:evenodd"
viewBox="0 0 683 332"
 xmlns:xlink="http://www.w3.org/1999/xlink">
 <defs>
  <style type="text/css">
   <![CDATA[
    .str1 {stroke:#332C2B;stroke-width:0.900504}
    .str0 {stroke:#332C2B;stroke-width:1.77264;stroke-linejoin:bevel}
    .str2 {stroke:#332C2B;stroke-width:0.900504;stroke-linejoin:bevel}
    .fil0 {fill:none}
    .fil1 {fill:none;fill-rule:nonzero}
    .fil2 {fill:#E95556}
   ]]>
  </style>
 </defs>
 <g id="图层_x0020_1">
  <metadata id="CorelCorpID_0Corel-Layer"/>
  <g id="_1625341360">
   <path class="fil0 str0" d="M449 317c73,32 158,9 203,-56 46,-65 39,-153 -16,-210"/>
   <path class="fil0 str0" d="M440 186c-26,0 -47,21 -47,47 0,26 21,47 47,47 25,0 46,-21 46,-47 0,-26 -21,-47 -46,-47z"/>
   <polyline class="fil0 str0" points="244,314 248,313 250,313 "/>
   <line class="fil0 str0" x1="433" y1="313" x2="250" y2= "313" />
   <line class="fil0 str0" x1="166" y1="311" x2="517" y2= "311" />
   <line class="fil0 str0" x1="433" y1="313" x2="435" y2= "313" />
   <polyline class="fil0 str0" points="435,313 439,314 441,314 "/>
   <line class="fil0 str0" x1="242" y1="314" x2="244" y2= "314" />
   <line class="fil0 str0" x1="439" y1="314" x2="442" y2= "314" />
   <line class="fil0 str0" x1="442" y1="314" x2="445" y2= "315" />
   <line class="fil0 str0" x1="445" y1="315" x2="448" y2= "316" />
   <line class="fil0 str0" x1="50" y1="51" x2="63" y2= "65" />
   <line class="fil0 str0" x1="50" y1="50" x2="64" y2= "64" />
   <line class="fil0 str0" x1="516" y1="22" x2="516" y2= "2" />
   <line class="fil0 str0" x1="519" y1="22" x2="520" y2= "2" />
   <line class="fil0 str0" x1="620" y1="65" x2="633" y2= "51" />
   <line class="fil0 str0" x1="633" y1="50" x2="619" y2= "64" />
   <line class="fil0 str0" x1="235" y1="316" x2="238" y2= "315" />
   <polyline class="fil0 str0" points="238,315 241,314 244,314 "/>
   <line class="fil0 str0" x1="402" y1="20" x2="402" y2= "22" />
   <line class="fil0 str0" x1="404" y1="22" x2="404" y2= "20" />
   <polyline class="fil0 str0" points="439,18 435,19 433,19 "/>
   <line class="fil0 str0" x1="241" y1="18" x2="238" y2= "17" />
   <line class="fil0 str0" x1="235" y1="16" x2="235" y2= "16" />
   <line class="fil0 str0" x1="279" y1="22" x2="279" y2= "20" />
   <line class="fil0 str0" x1="281" y1="22" x2="281" y2= "20" />
   <polyline class="fil0 str0" points="445,17 442,18 439,18 "/>
   <line class="fil0 str0" x1="517" y1="22" x2="166" y2= "22" />
   <line class="fil0 str0" x1="282" y1="19" x2="401" y2= "19" />
   <line class="fil0 str0" x1="405" y1="19" x2="433" y2= "19" />
   <line class="fil0 str0" x1="278" y1="19" x2="250" y2= "19" />
   <line class="fil0 str0" x1="250" y1="19" x2="248" y2= "19" />
   <polyline class="fil0 str0" points="248,19 244,18 241,18 "/>
   <line class="fil0 str0" x1="164" y1="22" x2="163" y2= "2" />
   <line class="fil0 str0" x1="167" y1="22" x2="167" y2= "2" />
   <path class="fil0 str0" d="M449 317c0,-1 -1,-1 -1,-1"/>
   <path class="fil0 str0" d="M532 151c-12,0 -22,10 -22,23 0,12 10,23 22,23 13,0 23,-11 23,-23 0,-13 -10,-23 -23,-23z"/>
   <path class="fil0 str0" d="M440 210c-13,0 -24,10 -24,23 0,13 11,23 24,23 12,0 23,-10 23,-23 0,-13 -11,-23 -23,-23z"/>
   <path class="fil0 str0" d="M579 105c-13,0 -23,10 -23,22 0,13 10,23 23,23 12,0 23,-10 23,-23 0,-12 -11,-22 -23,-22z"/>
   <path class="fil0 str0" d="M633 48c-30,-29 -70,-46 -112,-47"/>
   <path class="fil0 str0" d="M514 1c-22,0 -44,5 -65,14"/>
   <path class="fil0 str0" d="M517 311c52,0 99,-28 125,-73 26,-44 26,-100 0,-144 -26,-45 -73,-72 -125,-72"/>
   <g>
    <line class="fil0 str1" x1="539" y1="169" x2="539" y2= "171" />
    <line class="fil0 str1" x1="539" y1="176" x2="539" y2= "178" />
    <line class="fil0 str1" x1="537" y1="178" x2="537" y2= "177" />
    <line class="fil0 str1" x1="537" y1="170" x2="537" y2= "170" />
    <line class="fil0 str1" x1="539" y1="178" x2="538" y2= "179" />
    <line class="fil0 str1" x1="536" y1="179" x2="537" y2= "178" />
    <line class="fil0 str1" x1="539" y1="171" x2="538" y2= "172" />
    <line class="fil0 str1" x1="536" y1="171" x2="537" y2= "170" />
    <line class="fil0 str1" x1="538" y1="179" x2="537" y2= "181" />
    <line class="fil0 str1" x1="538" y1="172" x2="537" y2= "173" />
    <line class="fil0 str1" x1="536" y1="180" x2="536" y2= "179" />
    <line class="fil0 str1" x1="536" y1="172" x2="536" y2= "171" />
    <line class="fil0 str1" x1="528" y1="168" x2="528" y2= "172" />
    <line class="fil0 str1" x1="528" y1="175" x2="528" y2= "180" />
    <line class="fil0 str1" x1="526" y1="182" x2="526" y2= "166" />
    <line class="fil0 str1" x1="537" y1="181" x2="536" y2= "182" />
    <line class="fil0 str1" x1="537" y1="173" x2="537" y2= "173" />
    <line class="fil0 str1" x1="535" y1="180" x2="536" y2= "180" />
    <line class="fil0 str1" x1="535" y1="173" x2="536" y2= "172" />
    <line class="fil0 str1" x1="536" y1="182" x2="534" y2= "182" />
    <line class="fil0 str1" x1="534" y1="182" x2="526" y2= "182" />
    <line class="fil0 str1" x1="535" y1="180" x2="528" y2= "180" />
    <line class="fil0 str1" x1="535" y1="175" x2="528" y2= "175" />
    <line class="fil0 str1" x1="535" y1="173" x2="528" y2= "173" />
    <line class="fil0 str1" x1="528" y1="168" x2="535" y2= "168" />
    <line class="fil0 str1" x1="526" y1="165" x2="534" y2= "165" />
    <line class="fil0 str1" x1="534" y1="165" x2="536" y2= "166" />
    <line class="fil0 str1" x1="536" y1="175" x2="535" y2= "175" />
    <line class="fil0 str1" x1="536" y1="168" x2="535" y2= "168" />
    <line class="fil0 str1" x1="537" y1="174" x2="537" y2= "174" />
    <line class="fil0 str1" x1="536" y1="166" x2="537" y2= "167" />
    <line class="fil0 str1" x1="536" y1="176" x2="536" y2= "175" />
    <line class="fil0 str1" x1="536" y1="169" x2="536" y2= "168" />
    <line class="fil0 str1" x1="537" y1="174" x2="538" y2= "175" />
    <line class="fil0 str1" x1="537" y1="167" x2="538" y2= "168" />
    <line class="fil0 str1" x1="537" y1="177" x2="536" y2= "176" />
    <line class="fil0 str1" x1="538" y1="175" x2="539" y2= "176" />
    <line class="fil0 str1" x1="537" y1="170" x2="536" y2= "169" />
    <line class="fil0 str1" x1="538" y1="168" x2="539" y2= "169" />
    <path class="fil0 str1" d="M526 182c0,0 0,0 0,0 0,0 0,0 0,0"/>
    <path class="fil0 str1" d="M528 172c0,0 0,0 0,0 0,1 0,1 0,1"/>
    <path class="fil0 str1" d="M528 168c0,0 0,0 0,0 0,0 0,0 0,0"/>
    <path class="fil0 str1" d="M528 180c0,0 0,0 0,0 0,0 0,0 0,0"/>
    <path class="fil0 str1" d="M528 175c0,0 0,0 0,0 0,0 0,0 0,0"/>
    <path class="fil0 str1" d="M537 173c0,0 0,1 0,1 0,0 0,0 0,0"/>
    <path class="fil0 str1" d="M526 165c0,0 0,1 0,1 0,0 0,0 0,0"/>
   </g>
   <g>
    <line class="fil0 str2" x1="576" y1="131" x2="574" y2= "135" />
    <line class="fil0 str2" x1="579" y1="121" x2="576" y2= "130" />
    <line class="fil0 str2" x1="572" y1="135" x2="578" y2= "119" />
    <line class="fil0 str2" x1="586" y1="136" x2="584" y2= "136" />
    <line class="fil0 str2" x1="574" y1="136" x2="572" y2= "136" />
    <line class="fil0 str2" x1="582" y1="131" x2="576" y2= "131" />
    <line class="fil0 str2" x1="576" y1="130" x2="582" y2= "130" />
    <line class="fil0 str2" x1="578" y1="119" x2="580" y2= "119" />
    <line class="fil0 str2" x1="580" y1="119" x2="586" y2= "135" />
    <line class="fil0 str2" x1="584" y1="135" x2="582" y2= "131" />
    <line class="fil0 str2" x1="582" y1="130" x2="579" y2= "121" />
    <path class="fil0 str2" d="M572 135c0,0 0,0 0,1 0,0 0,0 0,0"/>
    <path class="fil0 str2" d="M574 136c0,0 0,0 0,-1"/>
    <path class="fil0 str2" d="M576 131c0,0 0,0 0,0"/>
    <path class="fil0 str2" d="M582 131c0,0 0,0 0,0"/>
    <path class="fil0 str2" d="M584 135c0,1 0,1 0,1"/>
    <path class="fil0 str2" d="M586 136c0,0 0,0 0,0 0,-1 0,-1 0,-1"/>
    <path class="fil0 str2" d="M579 121c0,0 0,0 0,0 0,0 0,0 0,0"/>
    <path class="fil0 str2" d="M582 130c0,0 0,0 0,0 0,0 0,0 0,0"/>
    <path class="fil0 str2" d="M576 130c0,0 0,0 0,0 0,0 0,0 0,0"/>
    <path class="fil0 str2" d="M580 119c0,0 0,0 0,0"/>
    <path class="fil0 str2" d="M578 119c0,0 0,0 0,0"/>
   </g>
   <path class="fil0 str0" d="M532 58c-12,0 -22,10 -22,23 0,12 10,23 22,23 13,0 23,-11 23,-23 0,-13 -10,-23 -23,-23z"/>
   <g>
    <line class="fil0 str2" x1="526" y1="89" x2="531" y2= "81" />
    <line class="fil0 str2" x1="532" y1="83" x2="528" y2= "89" />
    <line class="fil0 str2" x1="533" y1="79" x2="537" y2= "73" />
    <line class="fil0 str2" x1="539" y1="73" x2="534" y2= "81" />
    <line class="fil0 str2" x1="539" y1="89" x2="537" y2= "89" />
    <line class="fil0 str2" x1="528" y1="89" x2="526" y2= "89" />
    <line class="fil0 str2" x1="526" y1="73" x2="528" y2= "73" />
    <line class="fil0 str2" x1="537" y1="73" x2="539" y2= "73" />
    <line class="fil0 str2" x1="531" y1="81" x2="526" y2= "73" />
    <line class="fil0 str2" x1="537" y1="89" x2="533" y2= "83" />
    <line class="fil0 str2" x1="528" y1="73" x2="532" y2= "79" />
    <line class="fil0 str2" x1="534" y1="81" x2="539" y2= "89" />
    <path class="fil0 str2" d="M534 81c0,0 0,0 0,0"/>
    <path class="fil0 str2" d="M531 81c0,0 0,0 0,0"/>
    <path class="fil0 str2" d="M532 79c0,0 0,0 1,0 0,0 0,0 0,0"/>
    <path class="fil0 str2" d="M537 73c0,0 0,0 0,0"/>
    <path class="fil0 str2" d="M537 89c0,0 0,0 0,0"/>
    <path class="fil0 str2" d="M528 73c0,0 0,0 0,0"/>
    <path class="fil0 str2" d="M528 89c0,0 0,0 0,0"/>
    <path class="fil0 str2" d="M533 83c0,0 0,0 0,0 -1,0 -1,0 -1,0"/>
    <path class="fil0 str2" d="M526 73c0,0 0,0 0,0 0,0 0,0 0,0"/>
    <path class="fil0 str2" d="M526 89c0,0 0,0 0,0 0,0 0,0 0,0"/>
   </g>
   <path class="fil0 str0" d="M486 105c-13,0 -23,10 -23,22 0,13 10,23 23,23 13,0 23,-10 23,-23 0,-12 -10,-22 -23,-22z"/>
   <g>
    <line class="fil0 str2" x1="487" y1="127" x2="487" y2= "135" />
    <line class="fil0 str2" x1="485" y1="135" x2="485" y2= "127" />
    <line class="fil0 str2" x1="486" y1="126" x2="490" y2= "119" />
    <line class="fil0 str2" x1="492" y1="119" x2="487" y2= "127" />
    <line class="fil0 str2" x1="487" y1="136" x2="485" y2= "136" />
    <line class="fil0 str2" x1="480" y1="119" x2="481" y2= "119" />
    <line class="fil0 str2" x1="491" y1="119" x2="492" y2= "119" />
    <line class="fil0 str2" x1="485" y1="127" x2="480" y2= "119" />
    <line class="fil0 str2" x1="482" y1="119" x2="486" y2= "126" />
    <path class="fil0 str2" d="M485 135c0,0 0,0 0,1 0,0 0,0 0,0"/>
    <path class="fil0 str2" d="M487 136c0,0 0,0 0,0 0,-1 0,-1 0,-1"/>
    <path class="fil0 str2" d="M487 127c0,0 0,0 0,0"/>
    <path class="fil0 str2" d="M491 119c0,0 -1,0 -1,0"/>
    <path class="fil0 str2" d="M482 119c0,0 -1,0 -1,0"/>
    <path class="fil0 str2" d="M485 127c0,0 0,0 0,0"/>
    <path class="fil0 str2" d="M492 119c0,0 0,0 0,0 0,0 0,0 0,0"/>
    <path class="fil0 str2" d="M486 126c0,0 0,0 0,0 0,0 0,0 0,0"/>
    <path class="fil0 str2" d="M480 119c0,0 0,0 0,0 0,0 0,0 0,0"/>
   </g>
   <path class="fil0 str0" d="M633 50c0,0 0,0 0,-1 0,0 0,-1 0,-1"/>
   <path class="fil0 str0" d="M521 1c0,0 -1,0 -1,0 0,1 0,1 0,1"/>
   <path class="fil0 str0" d="M516 2c0,0 -1,-1 -2,-1"/>
   <path class="fil0 str0" d="M636 51c-1,0 -1,0 -2,0 0,0 0,0 -1,0"/>
   <path class="fil0 str0" d="M405 19c-1,0 -1,1 -1,1"/>
   <path class="fil0 str0" d="M402 20c0,0 0,0 0,-1 0,0 -1,0 -1,0"/>
   <path class="fil0 str0" d="M433 19c3,0 7,-1 10,-1"/>
   <path class="fil0 str0" d="M443 18c1,-1 1,-1 2,-1"/>
   <path class="fil0 str0" d="M437 19c2,-1 4,-1 6,-1"/>
   <path class="fil0 str0" d="M448 16c0,0 1,0 1,-1"/>
   <path class="fil0 str0" d="M445 17c1,0 2,-1 3,-1"/>
   <path class="fil0 str0" d="M448 16c0,0 0,0 0,0"/>
   <path class="fil0 str0" d="M244 314c-1,0 -2,0 -4,0"/>
   <path class="fil0 str0" d="M245 313c0,1 -1,1 -1,1"/>
   <path class="fil0 str0" d="M245 313c0,0 0,0 0,0"/>
   <path class="fil0 str0" d="M250 313c-3,0 -7,1 -10,1"/>
   <path class="fil0 str0" d="M246 313c0,0 0,0 -1,0"/>
   <path class="fil0 str0" d="M240 314c-1,1 -1,1 -2,1"/>
   <path class="fil0 str0" d="M250 313c-3,0 -6,1 -10,1"/>
   <path class="fil0 str0" d="M235 316c0,0 -1,0 -1,1"/>
   <path class="fil0 str0" d="M250 313c-1,0 -2,0 -4,0"/>
   <path class="fil0 str0" d="M243 186c-25,0 -46,21 -46,47 0,26 21,47 46,47 26,0 47,-21 47,-47 0,-26 -21,-47 -47,-47z"/>
   <path class="fil0 str0" d="M243 210c-12,0 -23,10 -23,23 0,13 11,23 23,23 13,0 24,-10 24,-23 0,-13 -11,-23 -24,-23z"/>
   <line class="fil0 str0" x1="367" y1="137" x2="398" y2= "137" />
   <line class="fil0 str0" x1="398" y1="118" x2="367" y2= "118" />
   <path class="fil0 str0" d="M398 137c3,0 6,-2 8,-5 2,-3 2,-7 0,-10 -2,-3 -5,-4 -8,-4"/>
   <path class="fil0 str0" d="M367 118c-3,0 -6,1 -8,4 -2,3 -2,7 0,10 2,3 5,5 8,5"/>
   <line class="fil0 str0" x1="285" y1="137" x2="316" y2= "137" />
   <line class="fil0 str0" x1="316" y1="118" x2="285" y2= "118" />
   <path class="fil0 str0" d="M285 118c-3,0 -6,1 -8,4 -2,3 -2,7 0,10 2,3 5,5 8,5"/>
   <path class="fil0 str0" d="M316 137c3,0 6,-2 8,-5 2,-3 2,-7 0,-10 -2,-3 -5,-4 -8,-4"/>
   <path class="fil0 str0" d="M162 1c-42,1 -82,18 -112,47"/>
   <path class="fil0 str0" d="M234 15c-21,-9 -43,-14 -65,-14"/>
   <path class="fil0 str0" d="M47 51c-55,57 -62,145 -16,210 45,65 130,88 203,56"/>
   <path class="fil0 str0" d="M166 22c-52,0 -99,27 -125,72 -26,44 -26,100 0,144 26,45 73,73 125,73"/>
   <path class="fil0 str0" d="M171 146c0,0 -1,0 -1,0 -1,1 -1,1 -1,2"/>
   <path class="fil0 str0" d="M130 109c0,0 1,0 2,-1 0,0 0,-1 0,-2"/>
   <path class="fil0 str0" d="M240 18c3,0 7,1 10,1"/>
   <path class="fil0 str0" d="M238 17c1,0 1,0 2,1"/>
   <path class="fil0 str0" d="M234 15c0,1 1,1 1,1"/>
   <path class="fil0 str0" d="M240 18c2,0 4,0 6,1"/>
   <path class="fil0 str0" d="M235 16c1,0 2,1 3,1"/>
   <path class="fil0 str0" d="M235 16c0,0 0,0 0,0"/>
   <path class="fil0 str0" d="M279 20c0,0 0,-1 -1,-1"/>
   <path class="fil0 str0" d="M282 19c0,0 -1,0 -1,0 0,1 0,1 0,1"/>
   <path class="fil0 str0" d="M50 48c0,0 0,1 0,1 0,1 0,1 0,1"/>
   <path class="fil0 str0" d="M163 2c0,0 0,0 0,-1 0,0 -1,0 -1,0"/>
   <path class="fil0 str0" d="M169 1c-1,0 -2,1 -2,1"/>
   <path class="fil0 str0" d="M50 51c-1,0 -1,0 -1,0 -1,0 -1,0 -2,0"/>
   <path class="fil0 str0" d="M169 106c0,1 0,1 0,1 0,1 0,1 1,1 0,1 0,1 0,1 1,0 1,0 1,0"/>
   <path class="fil0 str0" d="M137 73c4,0 9,0 14,0"/>
   <path class="fil0 str0" d="M151 73c4,0 9,0 13,0"/>
   <path class="fil0 str0" d="M171 109c3,0 5,0 8,0 7,0 14,0 21,0"/>
   <path class="fil0 str0" d="M164 181c-4,0 -9,0 -13,0"/>
   <path class="fil0 str0" d="M151 181c-5,0 -10,0 -14,0"/>
   <path class="fil0 str0" d="M204 114c0,9 0,18 0,27"/>
   <path class="fil0 str0" d="M132 106c0,-2 0,-4 0,-7 0,-7 0,-14 0,-21"/>
   <path class="fil0 str0" d="M101 109c3,0 5,0 7,0 7,0 15,0 22,0"/>
   <path class="fil0 str0" d="M130 146c-3,0 -5,0 -7,0 -8,0 -15,0 -22,0"/>
   <path class="fil0 str0" d="M132 177c0,-3 0,-5 0,-8 0,-7 0,-14 0,-21"/>
   <path class="fil0 str0" d="M169 148c0,3 0,5 0,7 0,7 0,14 0,22"/>
   <path class="fil0 str0" d="M200 146c-3,0 -5,0 -7,0 -7,0 -14,0 -22,0"/>
   <path class="fil0 str0" d="M97 141c0,-9 0,-18 0,-27"/>
   <path class="fil0 str0" d="M169 78c0,2 0,5 0,7 0,7 0,14 0,21"/>
   <path class="fil0 str0" d="M132 148c0,0 0,0 0,-1 0,0 0,0 0,-1 -1,0 -1,0 -1,0 -1,0 -1,0 -1,0"/>
   <path class="fil0 str0" d="M200 109c0,0 1,0 2,0 0,1 1,1 1,1 1,1 1,1 1,2 0,0 0,1 0,2"/>
   <path class="fil0 str0" d="M97 114c0,-1 0,-2 0,-2 0,-1 1,-1 1,-2 0,0 1,0 1,-1 1,0 2,0 2,0"/>
   <path class="fil0 str0" d="M101 146c0,0 -1,0 -2,-1 0,0 -1,0 -1,-1 0,0 -1,-1 -1,-1 0,-1 0,-1 0,-2"/>
   <path class="fil0 str0" d="M204 141c0,1 0,1 0,2 0,0 0,1 -1,1 0,1 -1,1 -1,1 -1,0 -2,1 -2,1"/>
   <path class="fil0 str0" d="M169 177c0,0 0,1 0,1 -1,1 -1,1 -1,2 -1,0 -1,1 -2,1 -1,0 -1,0 -2,0"/>
   <path class="fil0 str0" d="M137 181c-1,0 -1,0 -2,0 0,0 -1,-1 -1,-1 -1,-1 -1,-1 -1,-2 -1,0 -1,-1 -1,-1"/>
   <path class="fil0 str0" d="M132 78c0,-1 0,-1 1,-2 0,0 0,-1 1,-1 0,-1 1,-1 1,-1 1,-1 1,-1 2,-1"/>
   <path class="fil0 str0" d="M164 73c1,0 1,0 2,1 1,0 1,0 2,1 0,0 0,1 1,1 0,1 0,1 0,2"/>
   <line class="fil0 str0" x1="133" y1="189" x2="166" y2= "189" />
   <line class="fil0 str0" x1="97" y1="153" x2="121" y2= "153" />
   <line class="fil0 str0" x1="178" y1="153" x2="202" y2= "153" />
   <line class="fil0 str0" x1="202" y1="102" x2="178" y2= "102" />
   <line class="fil0 str0" x1="121" y1="102" x2="97" y2= "102" />
   <line class="fil0 str0" x1="166" y1="66" x2="133" y2= "66" />
   <line class="fil0 str0" x1="211" y1="144" x2="211" y2= "110" />
   <line class="fil0 str0" x1="175" y1="180" x2="175" y2= "156" />
   <line class="fil0 str0" x1="175" y1="98" x2="175" y2= "74" />
   <line class="fil0 str0" x1="124" y1="74" x2="124" y2= "98" />
   <line class="fil0 str0" x1="124" y1="156" x2="124" y2= "180" />
   <line class="fil0 str0" x1="88" y1="110" x2="88" y2= "144" />
   <path class="fil0 str0" d="M166 189c3,0 5,-1 7,-3 1,-2 2,-4 2,-6"/>
   <path class="fil0 str0" d="M124 180c0,2 1,4 2,6 2,2 4,3 7,3"/>
   <path class="fil0 str0" d="M202 153c3,0 5,-1 6,-3 2,-1 3,-4 3,-6"/>
   <path class="fil0 str0" d="M211 110c0,-2 -1,-4 -3,-6 -1,-2 -3,-2 -6,-2"/>
   <path class="fil0 str0" d="M178 153c-1,0 -1,0 -2,1 -1,0 -1,1 -1,2"/>
   <path class="fil0 str0" d="M88 144c0,2 1,5 3,6 1,2 3,3 6,3"/>
   <path class="fil0 str0" d="M124 156c0,-1 0,-2 -1,-2 -1,-1 -1,-1 -2,-1"/>
   <path class="fil0 str0" d="M175 74c0,-2 -1,-4 -2,-6 -2,-1 -4,-2 -7,-2"/>
   <path class="fil0 str0" d="M175 98c0,1 0,2 1,3 1,0 1,1 2,1"/>
   <path class="fil0 str0" d="M97 102c-3,0 -5,0 -6,2 -2,2 -3,4 -3,6"/>
   <path class="fil0 str0" d="M133 66c-3,0 -5,1 -7,2 -1,2 -2,4 -2,6"/>
   <path class="fil0 str0" d="M121 102c1,0 1,-1 2,-1 1,-1 1,-2 1,-3"/>
   <path class="fil0 str0" d="M285 152l113 0m-113 -50c-9,0 -17,5 -22,13 -4,8 -4,17 0,25 5,8 13,12 22,12m113 0c9,0 17,-4 22,-12 4,-8 4,-17 0,-25 -5,-8 -13,-13 -22,-13m0 0l-113 0"/>
   <g>
    <g>
     <polyline class="fil0 str0" points="268,316 268,316 267,316 267,316 267,316 267,316 267,316 267,316 267,316 267,316 267,316 267,316 267,316 267,316 267,316 267,316 267,316 267,316 267,316 267,316 267,316 267,316 267,316 267,316 267,315 267,315 267,315 267,315 267,315 267,315 266,315 266,315 266,315 266,315 266,315 266,315 266,315 266,315 266,315 266,315 266,315 266,315 266,315 266,315 266,315 266,315 266,315 266,315 266,315 266,315 266,315 266,315 266,315 266,315 266,315 266,315 266,314 266,314 266,314 266,314 266,314 266,314 266,314 "/>
     <polyline class="fil0 str0" points="311,316 311,316 312,316 312,316 312,316 312,316 312,316 312,316 312,316 312,316 312,316 312,316 312,316 312,316 312,316 312,316 312,316 312,316 312,316 312,316 312,316 312,316 312,316 312,316 312,315 312,315 312,315 312,315 312,315 312,315 313,315 313,315 313,315 313,315 313,315 313,315 313,315 313,315 313,315 313,315 313,315 313,315 313,315 313,315 313,315 313,315 313,315 313,315 313,315 313,315 313,315 313,315 313,315 313,315 313,315 313,315 313,314 313,314 313,314 313,314 313,314 313,314 313,314 "/>
     <line class="fil0 str0" x1="311" y1="316" x2="268" y2= "316" />
     <line class="fil0 str0" x1="313" y1="314" x2="313" y2= "313" />
     <line class="fil0 str0" x1="266" y1="314" x2="266" y2= "313" />
    </g>
    <g>
     <polyline class="fil0 str0" points="368,316 368,316 368,316 368,316 368,316 368,316 368,316 368,316 368,316 368,316 368,316 368,316 368,316 367,316 367,316 367,316 367,316 367,316 367,316 367,316 367,316 367,316 367,316 367,316 367,315 367,315 367,315 367,315 367,315 367,315 367,315 367,315 367,315 367,315 367,315 367,315 367,315 367,315 367,315 367,315 367,315 367,315 367,315 367,315 367,315 367,315 367,315 367,315 367,315 367,315 367,315 367,315 367,315 367,315 367,315 367,315 367,314 367,314 366,314 366,314 366,314 366,314 366,314 "/>
     <polyline class="fil0 str0" points="412,316 412,316 412,316 412,316 412,316 412,316 412,316 412,316 412,316 412,316 412,316 412,316 412,316 412,316 412,316 412,316 413,316 413,316 413,316 413,316 413,316 413,316 413,316 413,316 413,315 413,315 413,315 413,315 413,315 413,315 413,315 413,315 413,315 413,315 413,315 413,315 413,315 413,315 413,315 413,315 413,315 413,315 413,315 413,315 413,315 413,315 413,315 413,315 413,315 413,315 413,315 413,315 413,315 413,315 413,315 413,315 413,314 413,314 413,314 413,314 413,314 413,314 413,314 "/>
     <line class="fil0 str0" x1="412" y1="316" x2="368" y2= "316" />
     <line class="fil0 str0" x1="413" y1="314" x2="413" y2= "313" />
     <line class="fil0 str0" x1="366" y1="314" x2="366" y2= "313" />
    </g>
    <polyline class="fil0 str0" points="327,315 327,315 327,315 327,315 326,315 326,315 326,315 326,315 326,315 326,315 326,315 326,315 326,315 326,315 326,315 326,315 326,315 326,315 326,315 326,315 326,315 326,315 326,315 326,315 326,315 326,315 326,315 326,315 326,315 326,315 326,315 326,315 326,315 326,315 326,315 326,315 326,315 326,315 326,315 326,315 326,315 326,315 326,315 326,315 326,315 326,315 326,315 326,315 326,315 326,315 326,315 326,315 326,315 326,315 326,315 326,314 326,314 326,314 326,314 326,314 326,314 326,314 326,314 "/>
    <polyline class="fil0 str0" points="353,315 353,315 353,315 353,315 353,315 353,315 353,315 353,315 353,315 353,315 353,315 353,315 353,315 353,315 353,315 353,315 353,315 353,315 353,315 353,315 353,315 353,315 353,315 353,315 353,315 353,315 353,315 353,315 353,315 354,315 354,315 354,315 354,315 354,315 354,315 354,315 354,315 354,315 354,315 354,315 354,315 354,315 354,315 354,315 354,315 354,315 354,315 354,315 354,315 354,315 354,315 354,315 354,315 354,315 354,315 354,314 354,314 354,314 354,314 354,314 354,314 354,314 354,314 "/>
    <line class="fil0 str0" x1="353" y1="315" x2="327" y2= "315" />
    <line class="fil0 str0" x1="354" y1="314" x2="354" y2= "313" />
    <line class="fil0 str0" x1="326" y1="314" x2="326" y2= "313" />
   </g>
   <path class="fil1 str0" d="M160 127l0 1 0 0 0 0 0 0 0 0 0 1 0 0 0 0 0 0 0 1 0 0 0 0 0 0 0 0 0 1 0 0 0 0 -1 0 0 1 0 0 0 0 0 0 0 0 0 1 0 0 -1 0 0 0 0 0 0 1 0 0 0 0 -1 0 0 0 0 1 0 0 0 0 -1 0 0 0 0 0 0 0 0 1 -1 0 0 0 0 0 0 0 0 0 -1 0 0 0 0 0 0 1 -1 0 0 0 0 0 0 0 0 0 -1 0 0 0 0 0 0 0 -1 0 0 0 0 0 0 0 0 0 -1 0 0 0 0 0 0 0 -1 0 0 0 0 0 0 0 0 0 -1 0 0 0 0 0 0 0 -1 0 0 -1 0 0 0 0 0 0 -1 0 0 0 0 0 0 0 -1 0 0 -1 0 0 0 0 0 0 -1 0 0 0 0 0 0 -1 0 0 -1 0 0 0 0 0 0 -1 0 0 0 0 0 0 -1 0 0 -1 0 0 0 0 0 0 0 0 0 -1 0 0 0 0 -1 0 0 -1 0 0 0 0 0 0 0 0 0 -1 0 0 0 0 0 0 0 -1 0 0 0 0 0 0 0 0 0 -1m0 0l0 0 0 0 0 -1 0 0 0 0 0 -1 0 0 0 0 0 -1 0 0 1 0 0 -1 0 0 0 0 0 -1 0 0 0 0 1 0 0 -1 0 0 0 0 1 0 0 -1 0 0 0 0 1 0 0 -1 0 0 0 0 1 0 0 0 0 0 1 -1 0 0 0 0 1 0 0 0 0 0 1 0 0 0 0 0 1 0 0 0 0 0 1 0m0 0l0 0 0 0 1 0 0 0 0 0 1 0 0 0 0 0 1 0 0 0 0 0 1 0 0 1 0 0 0 0 1 0 0 0 0 0 1 1 0 0 0 0 0 0 1 1 0 0 0 0 0 0 0 1 1 0 0 0 0 0 0 1 0 0 0 0 1 1 0 0 0 0 0 1 0 0 0 0 0 1 0 0 0 0 0 1 0 0 0 0"/>
   <path class="fil2" d="M64 64c26,-26 62,-42 100,-42l-1 -20c0,0 0,0 0,-1 0,0 -1,0 -1,0 -42,1 -82,18 -112,47 0,0 0,1 0,1 0,1 0,1 0,1l14 14z"/>
   <path class="fil2" d="M519 22c38,0 74,16 100,42l14 -14c0,0 0,0 0,-1 0,0 0,-1 0,-1 -30,-29 -70,-46 -112,-47 0,0 -1,0 -1,0 0,1 0,1 0,1l-1 20z"/>
   <path class="fil2" d="M359 122c-2,3 -2,7 0,10 2,3 5,5 8,5l31 0c3,0 6,-2 8,-5 2,-3 2,-7 0,-10 -2,-3 -5,-4 -8,-4l-31 0c-3,0 -6,1 -8,4z"/>
  </g>
 </g>
</svg>
